<svg width="40" height="40" viewBox="0 0 40 40" fill="none" xmlns="http://www.w3.org/2000/svg">
	<g clip-path="url(#clip0_237_3068)">
		<path
			d="M27.6497 15H24.9997V6.66667C24.9997 5.75 24.2497 5 23.333 5H16.6663C15.7497 5 14.9997 5.75 14.9997 6.66667V15H12.3497C10.8663 15 10.1163 16.8 11.1663 17.85L18.8163 25.5C19.4663 26.15 20.5163 26.15 21.1663 25.5L28.8163 17.85C29.8663 16.8 29.133 15 27.6497 15ZM8.33301 31.6667C8.33301 32.5833 9.08301 33.3333 9.99967 33.3333H29.9997C30.9163 33.3333 31.6663 32.5833 31.6663 31.6667C31.6663 30.75 30.9163 30 29.9997 30H9.99967C9.08301 30 8.33301 30.75 8.33301 31.6667Z"
			fill="white"
		/>
	</g>
	<defs>
		<clipPath id="clip0_237_3068">
			<rect width="40" height="40" fill="white" />
		</clipPath>
	</defs>
</svg>
