<svg width="40" height="40" viewBox="0 0 40 40" fill="none" xmlns="http://www.w3.org/2000/svg">
	<g clip-path="url(#clip0_237_3056)">
		<path
			d="M34.8375 20.0114C34.8375 19.0922 34.095 18.3497 33.1758 18.3497L21.6617 18.3379L21.6617 6.81207C21.6617 5.89283 20.9192 5.15037 20 5.15037C19.0808 5.15037 18.3383 5.89283 18.3383 6.81207L18.3383 18.3379L6.81246 18.3379C5.89322 18.3379 5.15076 19.0804 5.15076 19.9996C5.15076 20.9188 5.89322 21.6613 6.81246 21.6613L18.3383 21.6613L18.3383 33.1871C18.3383 34.1064 19.0808 34.8488 20 34.8488C20.9192 34.8488 21.6617 34.1064 21.6617 33.1871L21.6617 21.6613L33.1875 21.6613C34.0832 21.6613 34.8375 20.9071 34.8375 20.0114Z"
			fill="white"
		/>
	</g>
	<defs>
		<clipPath id="clip0_237_3056">
			<rect width="40" height="40" fill="white" />
		</clipPath>
	</defs>
</svg>
