<svg width="40" height="40" viewBox="0 0 40 40" fill="none" xmlns="http://www.w3.org/2000/svg">
	<g clip-path="url(#clip0_237_3074)">
		<path
			d="M17.7182 6.19103C17.0004 6.19103 16.4364 6.76744 16.4364 7.47193V14.6321L6.1823 4.37466C5.68239 3.87511 4.87484 3.87511 4.37493 4.37466C3.87502 4.87421 3.87502 5.68117 4.37493 6.18072L14.629 16.4382H7.46369C6.75869 16.4382 6.18186 17.0146 6.18186 17.7191C6.18186 18.4236 6.75869 19 7.46369 19H17.7182C18.4232 19 19 18.4236 19 17.7191V7.47193C19 6.76744 18.4232 6.19103 17.7182 6.19103Z"
			fill="white"
		/>
		<path
			d="M22.2818 33.809C22.9996 33.809 23.5636 33.2326 23.5636 32.5281L23.5636 25.3679L33.8177 35.6253C34.3176 36.1249 35.1252 36.1249 35.6251 35.6253C36.125 35.1258 36.125 34.3188 35.6251 33.8193L25.371 23.5618L32.5363 23.5618C33.2413 23.5618 33.8181 22.9854 33.8181 22.2809C33.8181 21.5764 33.2413 21 32.5363 21L22.2818 21C21.5768 21 21 21.5764 21 22.2809L21 32.5281C21 33.2326 21.5768 33.809 22.2818 33.809Z"
			fill="white"
		/>
	</g>
	<defs>
		<clipPath id="clip0_237_3074">
			<rect width="40" height="40" fill="white" />
		</clipPath>
	</defs>
</svg>
